<?xml version="1.0" encoding="UTF-8" standalone="no"?>
<svg
   xmlns:dc="http://purl.org/dc/elements/1.1/"
   xmlns:cc="http://creativecommons.org/ns#"
   xmlns:rdf="http://www.w3.org/1999/02/22-rdf-syntax-ns#"
   xmlns:svg="http://www.w3.org/2000/svg"
   xmlns="http://www.w3.org/2000/svg"
   xmlns:sodipodi="http://sodipodi.sourceforge.net/DTD/sodipodi-0.dtd"
   xmlns:inkscape="http://www.inkscape.org/namespaces/inkscape"
   width="24"
   height="24"
   stroke-width="1.5"
   viewBox="0 0 24 24"
   fill="none"
   version="1.1"
   id="svg8"
   sodipodi:docname="source_icons_save-floppy-disk.svg"
   inkscape:version="0.92.5 (2060ec1f9f, 2020-04-08)">
  <metadata
     id="metadata14">
    <rdf:RDF>
      <cc:Work
         rdf:about="">
        <dc:format>image/svg+xml</dc:format>
        <dc:type
           rdf:resource="http://purl.org/dc/dcmitype/StillImage" />
      </cc:Work>
    </rdf:RDF>
  </metadata>
  <defs
     id="defs12" />
  <sodipodi:namedview
     pagecolor="#ffffff"
     bordercolor="#666666"
     borderopacity="1"
     objecttolerance="10"
     gridtolerance="10"
     guidetolerance="10"
     inkscape:pageopacity="0"
     inkscape:pageshadow="2"
     inkscape:window-width="1920"
     inkscape:window-height="1009"
     id="namedview10"
     showgrid="false"
     inkscape:zoom="9.8333333"
     inkscape:cx="12"
     inkscape:cy="12"
     inkscape:window-x="2560"
     inkscape:window-y="0"
     inkscape:window-maximized="1"
     inkscape:current-layer="svg8" />
  <path
     d="M3 19V5C3 3.89543 3.89543 3 5 3H16.1716C16.702 3 17.2107 3.21071 17.5858 3.58579L20.4142 6.41421C20.7893 6.78929 21 7.29799 21 7.82843V19C21 20.1046 20.1046 21 19 21H5C3.89543 21 3 20.1046 3 19Z"
     stroke="currentColor"
     stroke-width="1.5"
     id="path2"
     style="stroke:#d400aa;stroke-opacity:1" />
  <path
     d="M8.6 9H15.4C15.7314 9 16 8.73137 16 8.4V3.6C16 3.26863 15.7314 3 15.4 3H8.6C8.26863 3 8 3.26863 8 3.6V8.4C8 8.73137 8.26863 9 8.6 9Z"
     stroke="currentColor"
     stroke-width="1.5"
     id="path4"
     style="stroke:#d400aa;stroke-opacity:1" />
  <path
     d="M6 13.6V21H18V13.6C18 13.2686 17.7314 13 17.4 13H6.6C6.26863 13 6 13.2686 6 13.6Z"
     stroke="currentColor"
     stroke-width="1.5"
     id="path6"
     style="stroke:#d400aa;stroke-opacity:1" />
</svg>
