<?xml version="1.0" encoding="UTF-8" standalone="no"?>
<!-- Created with Inkscape (http://www.inkscape.org/) -->

<svg
   xmlns:dc="http://purl.org/dc/elements/1.1/"
   xmlns:cc="http://creativecommons.org/ns#"
   xmlns:rdf="http://www.w3.org/1999/02/22-rdf-syntax-ns#"
   xmlns:svg="http://www.w3.org/2000/svg"
   xmlns="http://www.w3.org/2000/svg"
   xmlns:sodipodi="http://sodipodi.sourceforge.net/DTD/sodipodi-0.dtd"
   xmlns:inkscape="http://www.inkscape.org/namespaces/inkscape"
   width="512"
   height="512"
   viewBox="0 0 135.46667 135.46667"
   version="1.1"
   id="svg8"
   inkscape:export-filename="/home/dmpop/favicon.png"
   inkscape:export-xdpi="96"
   inkscape:export-ydpi="96"
   inkscape:version="0.92.5 (2060ec1f9f, 2020-04-08)"
   sodipodi:docname="favicon.svg">
  <defs
     id="defs2">
    <inkscape:perspective
       sodipodi:type="inkscape:persp3d"
       inkscape:vp_x="0 : 65.011906 : 1"
       inkscape:vp_y="0 : 1000.0001 : 0"
       inkscape:vp_z="103.56549 : -49.136907 : 1"
       inkscape:persp3d-origin="65.011904 : 43.34127 : 1"
       id="perspective9439" />
    <symbol
       id="Coffeeshop_Inv">
      <title
         id="title1729">Coffeeshop</title>
      <rect
         x="0.13229166"
         y="0.13229166"
         width="18.785418"
         height="18.785418"
         ry="1.5875"
         style="stroke:#ffffff;stroke-width:0.26458332"
         id="rect1731" />
      <g
         style="fill:#ffffff;fill-rule:evenodd;stroke:none"
         id="g1737">
        <path
           style="stroke-width:0.26458332"
           inkscape:connector-curvature="0"
           d="m 5.2916667,11.90625 a 1.3229167,1.3229167 0 0 0 1.3229166,1.322917 h 5.8208337 a 1.3229167,1.3229167 0 0 0 1.322916,-1.322917 v -0.264583 h 0.264584 a 2.6458335,2.6458335 0 0 0 0,-5.291667 H 5.2916667 Z M 13.758333,7.4083333 v 3.1749997 h 0.264584 a 1.5875,1.5875 0 0 0 0,-3.1749997 z"
           id="path1733" />
        <path
           style="stroke-width:0.26458332"
           inkscape:connector-curvature="0"
           d="m 2.1166667,13.758333 a 1.5875,1.5875 0 0 0 1.5875,1.5875 H 15.345833 a 1.5875,1.5875 0 0 0 1.5875,-1.5875 z"
           id="path1735" />
      </g>
    </symbol>
    <symbol
       id="Coffeeshop">
      <title
         id="title1720">Coffeeshop</title>
      <g
         style="fill-rule:evenodd;stroke:none"
         id="g1726">
        <path
           style="stroke-width:0.26458332"
           inkscape:connector-curvature="0"
           d="m 5.2916667,11.90625 a 1.3229167,1.3229167 0 0 0 1.3229166,1.322917 h 5.8208337 a 1.3229167,1.3229167 0 0 0 1.322916,-1.322917 v -0.264583 h 0.264584 a 2.6458335,2.6458335 0 0 0 0,-5.291667 H 5.2916667 Z M 13.758333,7.4083333 v 3.1749997 h 0.264584 a 1.5875,1.5875 0 0 0 0,-3.1749997 z"
           id="path1722" />
        <path
           style="stroke-width:0.26458332"
           inkscape:connector-curvature="0"
           d="m 2.1166667,13.758333 a 1.5875,1.5875 0 0 0 1.5875,1.5875 H 15.345833 a 1.5875,1.5875 0 0 0 1.5875,-1.5875 z"
           id="path1724" />
      </g>
    </symbol>
  </defs>
  <sodipodi:namedview
     id="base"
     pagecolor="#ffffff"
     bordercolor="#666666"
     borderopacity="1.0"
     inkscape:pageopacity="0.0"
     inkscape:pageshadow="2"
     inkscape:zoom="0.35"
     inkscape:cx="-1233.9248"
     inkscape:cy="68.209528"
     inkscape:document-units="mm"
     inkscape:current-layer="layer1"
     showgrid="false"
     fit-margin-top="0"
     fit-margin-left="0"
     fit-margin-right="0"
     fit-margin-bottom="0"
     inkscape:window-width="2560"
     inkscape:window-height="1377"
     inkscape:window-x="0"
     inkscape:window-y="0"
     inkscape:window-maximized="1"
     units="px" />
  <metadata
     id="metadata5">
    <rdf:RDF>
      <cc:Work
         rdf:about="">
        <dc:format>image/svg+xml</dc:format>
        <dc:type
           rdf:resource="http://purl.org/dc/dcmitype/StillImage" />
        <dc:title></dc:title>
      </cc:Work>
    </rdf:RDF>
  </metadata>
  <g
     inkscape:label="Layer 1"
     inkscape:groupmode="layer"
     id="layer1"
     transform="translate(825.44936,-64.257588)">
    <g
       id="g829"
       transform="matrix(0.83032966,0,0,0.83032966,-135.16985,33.510492)">
      <path
         transform="matrix(1.0371237,-0.16215478,0.16215478,1.0371237,4.5107216,-122.19096)"
         inkscape:transform-center-y="2.8164767"
         inkscape:transform-center-x="2.0829719"
         d="m -680.48069,167.24745 c -8.9167,10.20897 -33.21613,3.00801 -46.43058,6.02614 -13.21445,3.01813 -31.97816,20.05455 -44.44288,14.72901 -12.46472,-5.32553 -13.12514,-30.66089 -20.07904,-42.29592 -6.9539,-11.63504 -28.95481,-24.21584 -27.74173,-37.71618 1.21308,-13.500337 25.10435,-21.957489 34.02105,-32.166464 8.9167,-10.208974 14.08311,-35.020761 27.29755,-38.03889 13.21445,-3.018129 28.64049,17.090422 41.10521,22.415961 12.46473,5.325538 37.65864,2.571815 44.61254,14.206847 6.9539,11.635032 -7.40356,32.519956 -8.61663,46.020286 -1.21308,13.50034 9.19121,36.61024 0.27451,46.81921 z"
         inkscape:randomized="0"
         inkscape:rounded="0.28950718"
         inkscape:flatsided="false"
         sodipodi:arg2="1.3462517"
         sodipodi:arg1="0.71793314"
         sodipodi:r2="59.685223"
         sodipodi:r1="79.292168"
         sodipodi:cy="115.08673"
         sodipodi:cx="-740.20093"
         sodipodi:sides="5"
         id="path4551"
         style="fill:#d400aa;fill-opacity:1;stroke:none;stroke-width:1.17299998;stroke-linecap:round;stroke-linejoin:round;stroke-miterlimit:4;stroke-dasharray:none;stroke-opacity:1"
         sodipodi:type="star" />
      <path
         sodipodi:nodetypes="sssss"
         inkscape:connector-curvature="0"
         id="path9455-5"
         d="m -703.34798,117.66645 c 0,22.53293 -25.82607,37.77567 -48.359,37.77567 -22.53294,0 -33.23997,-15.24274 -33.23997,-37.77567 0,-22.532935 22.80227,-31.728059 45.3352,-31.728055 22.53294,2e-6 36.26377,9.195124 36.26377,31.728055 z"
         style="fill:#ffcc00;fill-opacity:1;stroke:none;stroke-width:8.30322742;stroke-miterlimit:4;stroke-dasharray:none;stroke-opacity:1" />
    </g>
  </g>
</svg>
